<svg xmlns="http://www.w3.org/2000/svg" style="display: none;">
  <symbol id="sparkles" viewBox="0 0 24 24"><path d="m12 3-1.912 5.813a2 2 0 0 1-1.275 1.275L3 12l5.813 1.912a2 2 0 0 1 1.275 1.275L12 21l1.912-5.813a2 2 0 0 1 1.275-1.275L21 12l-5.813-1.912a2 2 0 0 1-1.275-1.275L12 3Z"/><path d="M5 3v4"/><path d="M9 5h4"/><path d="M3 7h4"/></symbol>
  <symbol id="cpu" viewBox="0 0 24 24"><rect width="16" height="16" x="4" y="4" rx="2"/><rect width="6" height="6" x="9" y="9" rx="1"/><path d="M15 2v2"/><path d="M15 20v2"/><path d="M2 15h2"/><path d="M2 9h2"/><path d="M20 15h2"/><path d="M20 9h2"/><path d="M9 2v2"/><path d="M9 20v2"/></symbol>
  <symbol id="message-square-text" viewBox="0 0 24 24"><path d="M21 15a2 2 0 0 1-2 2H7l-4 4V5a2 2 0 0 1 2-2h14a2 2 0 0 1 2 2z"/><path d="M13 8H7"/><path d="M17 12H7"/></symbol>
  <symbol id="wallet" viewBox="0 0 24 24"><path d="M19 7V4a1 1 0 0 0-1-1H5a2 2 0 0 0 0 4h15a1 1 0 0 1 1 1v4h-3a2 2 0 0 0 0 4h3a1 1 0 0 0 1-1v-2a1 1 0 0 0-1-1"/><path d="M3 5v14a2 2 0 0 0 2 2h15a1 1 0 0 0 1-1v-4"/></symbol>
  <symbol id="arrow-left" viewBox="0 0 24 24"><path d="m12 19-7-7 7-7"/><path d="M19 12H5"/></symbol>
  <symbol id="copy" viewBox="0 0 24 24"><rect width="14" height="14" x="8" y="8" rx="2" ry="2"/><path d="M4 16c-1.1 0-2-.9-2-2V4c0-1.1.9-2 2-2h10c1.1 0 2 .9 2 2"/></symbol>
  <symbol id="check" viewBox="0 0 24 24"><polyline points="20 6 9 17 4 12"/></symbol>
  <symbol id="lightbulb" viewBox="0 0 24 24"><path d="M15 14c.2-1 .7-1.7 1.5-2.5 1-1 1.5-2 1.5-3.5 0-2.2-1.8-4-4-4-2.2 0-4 1.8-4 4 0 1.5.5 2.5 1.5 3.5.8.8 1.3 1.5 1.5 2.5"/><path d="M9 18h6"/><path d="M10 22h4"/></symbol>
  <symbol id="percent" viewBox="0 0 24 24"><line x1="19" x2="5" y1="5" y2="19"/><circle cx="6.5" cy="6.5" r="2.5"/><circle cx="17.5" cy="17.5" r="2.5"/></symbol>
  <symbol id="trending-up" viewBox="0 0 24 24"><path d="M16 7h6v6"/><path d="m22 7-8.5 8.5-5-5L2 17"/></symbol>
  <symbol id="badge-percent" viewBox="0 0 24 24"><path d="M3.85 8.62a4 4 0 0 1 4.78-4.77 4 4 0 0 1 6.74 0 4 4 0 0 1 4.78 4.78 4 4 0 0 1 0 6.74 4 4 0 0 1-4.77 4.78 4 4 0 0 1-6.75 0 4 4 0 0 1-4.78-4.77 4 4 0 0 1 0-6.76Z"/><path d="m15 9-6 6"/><path d="M9 9h.01"/><path d="M15 15h.01"/></symbol>
  <symbol id="fuel" viewBox="0 0 24 24"><path d="M14 13h2a2 2 0 0 1 2 2v2a2 2 0 0 0 4 0v-6.998a2 2 0 0 0-.59-1.42L18 5"/><path d="M14 21V5a2 2 0 0 0-2-2H5a2 2 0 0 0-2 2v16"/><path d="M2 21h13"/><path d="M3 9h11"/></symbol>
  <symbol id="hand-coins" viewBox="0 0 24 24"><path d="M11 15h2a2 2 0 1 0 0-4h-3c-.6 0-1.1.2-1.4.6L3 17"/><path d="m7 21 1.6-1.4c.3-.4.8-.6 1.4-.6h4c1.1 0 2.1-.4 2.8-1.2l4.6-4.4a2 2 0 0 0-2.75-2.91l-4.2 3.9"/><path d="m2 16 6 6"/><circle cx="16" cy="9" r="2.9"/><circle cx="6" cy="5" r="3"/></symbol>
  <symbol id="calculator" viewBox="0 0 24 24"><rect width="16" height="20" x="4" y="2" rx="2"/><line x1="8" x2="16" y1="6" y2="6"/><line x1="16" x2="16" y1="14" y2="18"/><path d="M16 10h.01"/><path d="M12 10h.01"/><path d="M8 10h.01"/><path d="M12 14h.01"/><path d="M8 14h.01"/><path d="M12 18h.01"/><path d="M8 18h.01"/></symbol>
  <symbol id="file-text" viewBox="0 0 24 24"><path d="M6 22a2 2 0 0 1-2-2V4a2 2 0 0 1 2-2h8a2.4 2.4 0 0 1 1.704.706l3.588 3.588A2.4 2.4 0 0 1 20 8v12a2 2 0 0 1-2 2z"/><path d="M14 2v5a1 1 0 0 0 1 1h5"/><path d="M10 9H8"/><path d="M16 13H8"/><path d="M16 17H8"/></symbol>
  <symbol id="file-check" viewBox="0 0 24 24"><path d="M6 22a2 2 0 0 1-2-2V4a2 2 0 0 1 2-2h8a2.4 2.4 0 0 1 1.704.706l3.588 3.588A2.4 2.4 0 0 1 20 8v12a2 2 0 0 1-2 2z"/><path d="M14 2v5a1 1 0 0 0 1 1h5"/><path d="m9 15 2 2 4-4"/></symbol>
  <symbol id="arrow-right-circle" viewBox="0 0 24 24"><circle cx="12" cy="12" r="10"/><path d="m12 16 4-4-4-4"/><path d="M8 12h8"/></symbol>
  <symbol id="arrows-exchange" viewBox="0 0 24 24"><path d="m16 3 4 4-4 4"/><path d="M20 7H4"/><path d="m8 21-4-4 4-4"/><path d="M4 17h16"/></symbol>
  <symbol id="clock" viewBox="0 0 24 24"><circle cx="12" cy="12" r="10"/><path d="M12 6v6l4 2"/></symbol>
  <symbol id="truck" viewBox="0 0 24 24"><path d="M14 18V6a2 2 0 0 0-2-2H4a2 2 0 0 0-2 2v11a1 1 0 0 0 1 1h2"/><path d="M15 18H9"/><path d="M19 18h2a1 1 0 0 0 1-1v-3.65a1 1 0 0 0-.22-.624l-3.48-4.35A1 1 0 0 0 17.52 8H14"/><circle cx="17" cy="18" r="2"/><circle cx="7" cy="18" r="2"/></symbol>
  <symbol id="ruler" viewBox="0 0 24 24"><path d="M21.3 15.3a2.4 2.4 0 0 1 0 3.4l-2.6 2.6a2.4 2.4 0 0 1-3.4 0L2.7 8.7a2.41 2.41 0 0 1 0-3.4l2.6-2.6a2.41 2.41 0 0 1 3.4 0Z"/><path d="m14.5 12.5 2-2"/><path d="m11.5 9.5 2-2"/><path d="m8.5 6.5 2-2"/><path d="m17.5 15.5 2-2"/></symbol>
  <symbol id="calendar-clock" viewBox="0 0 24 24"><path d="M16 14v2.2l1.6 1"/><path d="M16 2v4"/><path d="M21 7.5V6a2 2 0 0 0-2-2H5a2 2 0 0 0-2 2v14a2 2 0 0 0 2 2h3.5"/><path d="M3 10h5"/><path d="M8 2v4"/><circle cx="16" cy="16" r="6"/></symbol>
  <symbol id="git-branch" viewBox="0 0 24 24"><path d="M15 6a9 9 0 0 0-9 9V3"/><circle cx="18" cy="6" r="3"/><circle cx="6" cy="18" r="3"/></symbol>
  <symbol id="qr-code" viewBox="0 0 24 24"><rect width="5" height="5" x="3" y="3" rx="1"/><rect width="5" height="5" x="16" y="3" rx="1"/><rect width="5" height="5" x="3" y="16" rx="1"/><path d="M21 16h-3a2 2 0 0 0-2 2v3"/><path d="M21 21v.01"/><path d="M12 7v3a2 2 0 0 1-2 2H7"/><path d="M3 12h.01"/><path d="M12 3h.01"/><path d="M12 16v.01"/><path d="M16 12h1"/><path d="M21 12v.01"/><path d="M12 21v-1"/></symbol>
  <symbol id="palette" viewBox="0 0 24 24"><path d="M12 22a1 1 0 0 1 0-20 10 9 0 0 1 10 9 5 5 0 0 1-5 5h-2.25a1.75 1.75 0 0 0-1.4 2.8l.3.4a1.75 1.75 0 0 1-1.4 2.8z"/><circle cx="13.5" cy="6.5" r=".5" fill="currentColor"/><circle cx="17.5" cy="10.5" r=".5" fill="currentColor"/><circle cx="6.5" cy="12.5" r=".5" fill="currentColor"/><circle cx="8.5" cy="7.5" r=".5" fill="currentColor"/></symbol>
  <symbol id="key" viewBox="0 0 24 24"><path d="m15.5 7.5 2.3 2.3a1 1 0 0 0 1.4 0l2.1-2.1a1 1 0 0 0 0-1.4L19 4"/><path d="m21 2-9.6 9.6"/><circle cx="7.5" cy="15.5" r="5.5"/></symbol>
  <symbol id="wrench" viewBox="0 0 24 24"><path d="M14.7 6.3a1 1 0 0 0 0 1.4l1.6 1.6a1 1 0 0 0 1.4 0l3.106-3.105c.32-.322.863-.22.983.218a6 6 0 0 1-8.259 7.057l-7.91 7.91a1 1 0 0 1-2.999-3l7.91-7.91a6 6 0 0 1 7.057-8.259c.438.12.54.662.219.984z"/></symbol>
  <symbol id="heart-pulse" viewBox="0 0 24 24"><path d="M2 9.5a5.5 5.5 0 0 1 9.591-3.676.56.56 0 0 0 .818 0A5.49 5.49 0 0 1 22 9.5c0 2.29-1.5 4-3 5.5l-5.492 5.313a2 2 0 0 1-3 .019L5 15c-1.5-1.5-3-3.2-3-5.5"/><path d="M3.22 13H9.5l.5-1 2 4.5 2-7 1.5 3.5h5.27"/></symbol>
  <symbol id="wine" viewBox="0 0 24 24"><path d="M8 22h8"/><path d="M7 10h10"/><path d="M12 15v7"/><path d="M12 15a5 5 0 0 0 5-5c0-2-.5-4-2-8H9c-1.5 4-2 6-2 8a5 5 0 0 0 5 5Z"/></symbol>
  <symbol id="moon" viewBox="0 0 24 24"><path d="M20.985 12.486a9 9 0 1 1-9.473-9.472c.405-.022.617.46.402.803a6 6 0 0 0 8.268 8.268c.344-.215.825-.004.803.401"/></symbol>
  <symbol id="flame" viewBox="0 0 24 24"><path d="M12 3q1 4 4 6.5t3 5.5a1 1 0 0 1-14 0 5 5 0 0 1 1-3 1 1 0 0 0 5 0c0-2-1.5-3-1.5-5q0-2 2.5-4"/></symbol>
  <symbol id="footprints" viewBox="0 0 24 24"><path d="M4 16v-2.38C4 11.5 2.97 10.5 3 8c.03-2.72 1.49-6 4.5-6C9.37 2 10 3.8 10 5.5c0 3.11-2 5.66-2 8.68V16a2 2 0 1 1-4 0Z"/><path d="M20 20v-2.38c0-2.12 1.03-3.12 1-5.62-.03-2.72-1.49-6-4.5-6C14.63 6 14 7.8 14 9.5c0 3.11 2 5.66 2 8.68V20a2 2 0 1 0 4 0Z"/><path d="M16 17h4"/><path d="M4 13h4"/></symbol>
  <symbol id="newspaper" viewBox="0 0 24 24"><path d="M15 18h-5"/><path d="M18 14h-8"/><path d="M4 22h16a2 2 0 0 0 2-2V4a2 2 0 0 0-2-2H8a2 2 0 0 0-2 2v16a2 2 0 0 1-4 0v-9a2 2 0 0 1 2-2h2"/><rect width="8" height="4" x="10" y="6" rx="1"/></symbol>
  <symbol id="shield-check" viewBox="0 0 24 24"><path d="M20 13c0 5-3.5 7.5-7.66 8.95a1 1 0 0 1-.67-.01C7.5 20.5 4 18 4 13V6a1 1 0 0 1 1-1c2 0 4.5-1.2 6.24-2.72a1.17 1.17 0 0 1 1.52 0C14.51 3.81 17 5 19 5a1 1 0 0 1 1 1z"/><path d="m9 12 2 2 4-4"/></symbol>
</svg>
