<svg xmlns="http://www.w3.org/2000/svg" style="display: none;">
  <symbol id="sparkles" viewBox="0 0 24 24"><path d="m12 3-1.912 5.813a2 2 0 0 1-1.275 1.275L3 12l5.813 1.912a2 2 0 0 1 1.275 1.275L12 21l1.912-5.813a2 2 0 0 1 1.275-1.275L21 12l-5.813-1.912a2 2 0 0 1-1.275-1.275L12 3Z"/><path d="M5 3v4"/><path d="M9 5h4"/><path d="M3 7h4"/></symbol>
  <symbol id="cpu" viewBox="0 0 24 24"><rect width="16" height="16" x="4" y="4" rx="2"/><rect width="6" height="6" x="9" y="9" rx="1"/><path d="M15 2v2"/><path d="M15 20v2"/><path d="M2 15h2"/><path d="M2 9h2"/><path d="M20 15h2"/><path d="M20 9h2"/><path d="M9 2v2"/><path d="M9 20v2"/></symbol>
  <symbol id="message-square-text" viewBox="0 0 24 24"><path d="M21 15a2 2 0 0 1-2 2H7l-4 4V5a2 2 0 0 1 2-2h14a2 2 0 0 1 2 2z"/><path d="M13 8H7"/><path d="M17 12H7"/></symbol>
  <symbol id="wallet" viewBox="0 0 24 24"><path d="M19 7V4a1 1 0 0 0-1-1H5a2 2 0 0 0 0 4h15a1 1 0 0 1 1 1v4h-3a2 2 0 0 0 0 4h3a1 1 0 0 0 1-1v-2a1 1 0 0 0-1-1"/><path d="M3 5v14a2 2 0 0 0 2 2h15a1 1 0 0 0 1-1v-4"/></symbol>
  <symbol id="arrow-left" viewBox="0 0 24 24"><path d="m12 19-7-7 7-7"/><path d="M19 12H5"/></symbol>
  <symbol id="copy" viewBox="0 0 24 24"><rect width="14" height="14" x="8" y="8" rx="2" ry="2"/><path d="M4 16c-1.1 0-2-.9-2-2V4c0-1.1.9-2 2-2h10c1.1 0 2 .9 2 2"/></symbol>
  <symbol id="check" viewBox="0 0 24 24"><polyline points="20 6 9 17 4 12"/></symbol>
  <symbol id="lightbulb" viewBox="0 0 24 24"><path d="M15 14c.2-1 .7-1.7 1.5-2.5 1-1 1.5-2 1.5-3.5 0-2.2-1.8-4-4-4-2.2 0-4 1.8-4 4 0 1.5.5 2.5 1.5 3.5.8.8 1.3 1.5 1.5 2.5"/><path d="M9 18h6"/><path d="M10 22h4"/></symbol>
</svg>
